<mxfile host="app.diagrams.net" modified="2023-10-15T10:56:20.137Z" agent="Mozilla/5.0 (X11; Linux x86_64; rv:109.0) Gecko/20100101 Firefox/118.0" etag="lvF8-mfB5ytFFkRFgjsA" version="22.0.4" type="device">
  <diagram name="Page-1" id="c4acf3e9-155e-7222-9cf6-157b1a14988f">
    <mxGraphModel dx="1728" dy="2058" grid="1" gridSize="10" guides="1" tooltips="1" connect="1" arrows="1" fold="1" page="1" pageScale="1" pageWidth="850" pageHeight="1100" background="none" math="0" shadow="0">
      <root>
        <mxCell id="0" />
        <mxCell id="1" parent="0" />
        <mxCell id="hD-VJVcdOtQMjIJw9OLR-1" value="&lt;div&gt;RentService&lt;/div&gt;" style="swimlane;fontStyle=1;align=center;verticalAlign=top;childLayout=stackLayout;horizontal=1;startSize=26;horizontalStack=0;resizeParent=1;resizeParentMax=0;resizeLast=0;collapsible=1;marginBottom=0;whiteSpace=wrap;html=1;" vertex="1" parent="1">
          <mxGeometry x="550" y="40" width="380" height="240" as="geometry" />
        </mxCell>
        <mxCell id="hD-VJVcdOtQMjIJw9OLR-2" value="+ rentRepository: RentRepository" style="text;strokeColor=none;fillColor=none;align=left;verticalAlign=top;spacingLeft=4;spacingRight=4;overflow=hidden;rotatable=0;points=[[0,0.5],[1,0.5]];portConstraint=eastwest;whiteSpace=wrap;html=1;" vertex="1" parent="hD-VJVcdOtQMjIJw9OLR-1">
          <mxGeometry y="26" width="380" height="26" as="geometry" />
        </mxCell>
        <mxCell id="hD-VJVcdOtQMjIJw9OLR-3" value="" style="line;strokeWidth=1;fillColor=none;align=left;verticalAlign=middle;spacingTop=-1;spacingLeft=3;spacingRight=3;rotatable=0;labelPosition=right;points=[];portConstraint=eastwest;strokeColor=inherit;" vertex="1" parent="hD-VJVcdOtQMjIJw9OLR-1">
          <mxGeometry y="52" width="380" height="8" as="geometry" />
        </mxCell>
        <mxCell id="hD-VJVcdOtQMjIJw9OLR-4" value="+ getRents(): List&amp;lt;Rent&amp;gt;" style="text;strokeColor=none;fillColor=none;align=left;verticalAlign=top;spacingLeft=4;spacingRight=4;overflow=hidden;rotatable=0;points=[[0,0.5],[1,0.5]];portConstraint=eastwest;whiteSpace=wrap;html=1;" vertex="1" parent="hD-VJVcdOtQMjIJw9OLR-1">
          <mxGeometry y="60" width="380" height="30" as="geometry" />
        </mxCell>
        <mxCell id="hD-VJVcdOtQMjIJw9OLR-8" value="+ saveRent(rent: Rent): Rent" style="text;strokeColor=none;fillColor=none;align=left;verticalAlign=top;spacingLeft=4;spacingRight=4;overflow=hidden;rotatable=0;points=[[0,0.5],[1,0.5]];portConstraint=eastwest;whiteSpace=wrap;html=1;" vertex="1" parent="hD-VJVcdOtQMjIJw9OLR-1">
          <mxGeometry y="90" width="380" height="30" as="geometry" />
        </mxCell>
        <mxCell id="hD-VJVcdOtQMjIJw9OLR-6" value="+ deleteRent(rentId: ObjectId, updatedRent: Rent): Rent" style="text;strokeColor=none;fillColor=none;align=left;verticalAlign=top;spacingLeft=4;spacingRight=4;overflow=hidden;rotatable=0;points=[[0,0.5],[1,0.5]];portConstraint=eastwest;whiteSpace=wrap;html=1;" vertex="1" parent="hD-VJVcdOtQMjIJw9OLR-1">
          <mxGeometry y="120" width="380" height="30" as="geometry" />
        </mxCell>
        <mxCell id="hD-VJVcdOtQMjIJw9OLR-5" value="+ updateRent(rentId: ObjectId, updatedRent: Rent): Rent" style="text;strokeColor=none;fillColor=none;align=left;verticalAlign=top;spacingLeft=4;spacingRight=4;overflow=hidden;rotatable=0;points=[[0,0.5],[1,0.5]];portConstraint=eastwest;whiteSpace=wrap;html=1;" vertex="1" parent="hD-VJVcdOtQMjIJw9OLR-1">
          <mxGeometry y="150" width="380" height="30" as="geometry" />
        </mxCell>
        <mxCell id="hD-VJVcdOtQMjIJw9OLR-7" value="+ getTotalAmountByUserId(userId: ObjectId): Double" style="text;strokeColor=none;fillColor=none;align=left;verticalAlign=top;spacingLeft=4;spacingRight=4;overflow=hidden;rotatable=0;points=[[0,0.5],[1,0.5]];portConstraint=eastwest;whiteSpace=wrap;html=1;" vertex="1" parent="hD-VJVcdOtQMjIJw9OLR-1">
          <mxGeometry y="180" width="380" height="30" as="geometry" />
        </mxCell>
        <mxCell id="hD-VJVcdOtQMjIJw9OLR-9" value="+ getCurrentlyRentedCarsCountByUserId(userId: ObjectId): Int" style="text;strokeColor=none;fillColor=none;align=left;verticalAlign=top;spacingLeft=4;spacingRight=4;overflow=hidden;rotatable=0;points=[[0,0.5],[1,0.5]];portConstraint=eastwest;whiteSpace=wrap;html=1;" vertex="1" parent="hD-VJVcdOtQMjIJw9OLR-1">
          <mxGeometry y="210" width="380" height="30" as="geometry" />
        </mxCell>
        <mxCell id="hD-VJVcdOtQMjIJw9OLR-10" value="" style="endArrow=open;endFill=1;endSize=12;html=1;rounded=0;entryX=0.5;entryY=0;entryDx=0;entryDy=0;" edge="1" parent="1" source="hD-VJVcdOtQMjIJw9OLR-9" target="hD-VJVcdOtQMjIJw9OLR-51">
          <mxGeometry width="160" relative="1" as="geometry">
            <mxPoint x="620" y="230" as="sourcePoint" />
            <mxPoint x="740" y="370" as="targetPoint" />
          </mxGeometry>
        </mxCell>
        <mxCell id="hD-VJVcdOtQMjIJw9OLR-11" value="Uses" style="edgeLabel;html=1;align=center;verticalAlign=middle;resizable=0;points=[];" vertex="1" connectable="0" parent="hD-VJVcdOtQMjIJw9OLR-10">
          <mxGeometry x="-0.1714" y="-3" relative="1" as="geometry">
            <mxPoint as="offset" />
          </mxGeometry>
        </mxCell>
        <mxCell id="hD-VJVcdOtQMjIJw9OLR-18" value="UserService" style="swimlane;fontStyle=1;align=center;verticalAlign=top;childLayout=stackLayout;horizontal=1;startSize=26;horizontalStack=0;resizeParent=1;resizeParentMax=0;resizeLast=0;collapsible=1;marginBottom=0;whiteSpace=wrap;html=1;" vertex="1" parent="1">
          <mxGeometry x="60" y="40" width="380" height="52" as="geometry" />
        </mxCell>
        <mxCell id="hD-VJVcdOtQMjIJw9OLR-19" value="+ userRepository: UserRepository" style="text;strokeColor=none;fillColor=none;align=left;verticalAlign=top;spacingLeft=4;spacingRight=4;overflow=hidden;rotatable=0;points=[[0,0.5],[1,0.5]];portConstraint=eastwest;whiteSpace=wrap;html=1;" vertex="1" parent="hD-VJVcdOtQMjIJw9OLR-18">
          <mxGeometry y="26" width="380" height="26" as="geometry" />
        </mxCell>
        <mxCell id="hD-VJVcdOtQMjIJw9OLR-27" value="" style="endArrow=open;endFill=1;endSize=12;html=1;rounded=0;entryX=0.5;entryY=0;entryDx=0;entryDy=0;exitX=0.497;exitY=0.625;exitDx=0;exitDy=0;exitPerimeter=0;" edge="1" parent="1" target="hD-VJVcdOtQMjIJw9OLR-50">
          <mxGeometry width="160" relative="1" as="geometry">
            <mxPoint x="248.8599999999999" y="97" as="sourcePoint" />
            <mxPoint x="250" y="360" as="targetPoint" />
          </mxGeometry>
        </mxCell>
        <mxCell id="hD-VJVcdOtQMjIJw9OLR-28" value="Uses" style="edgeLabel;html=1;align=center;verticalAlign=middle;resizable=0;points=[];" vertex="1" connectable="0" parent="hD-VJVcdOtQMjIJw9OLR-27">
          <mxGeometry x="-0.1714" y="-3" relative="1" as="geometry">
            <mxPoint as="offset" />
          </mxGeometry>
        </mxCell>
        <mxCell id="hD-VJVcdOtQMjIJw9OLR-32" value="CarService" style="swimlane;fontStyle=1;align=center;verticalAlign=top;childLayout=stackLayout;horizontal=1;startSize=26;horizontalStack=0;resizeParent=1;resizeParentMax=0;resizeLast=0;collapsible=1;marginBottom=0;whiteSpace=wrap;html=1;" vertex="1" parent="1">
          <mxGeometry x="1040" y="40" width="380" height="52" as="geometry" />
        </mxCell>
        <mxCell id="hD-VJVcdOtQMjIJw9OLR-33" value="+ carRepository: CarRepository" style="text;strokeColor=none;fillColor=none;align=left;verticalAlign=top;spacingLeft=4;spacingRight=4;overflow=hidden;rotatable=0;points=[[0,0.5],[1,0.5]];portConstraint=eastwest;whiteSpace=wrap;html=1;" vertex="1" parent="hD-VJVcdOtQMjIJw9OLR-32">
          <mxGeometry y="26" width="380" height="26" as="geometry" />
        </mxCell>
        <mxCell id="hD-VJVcdOtQMjIJw9OLR-41" value="" style="endArrow=open;endFill=1;endSize=12;html=1;rounded=0;entryX=0.5;entryY=0;entryDx=0;entryDy=0;exitX=0.5;exitY=1;exitDx=0;exitDy=0;" edge="1" parent="1" source="hD-VJVcdOtQMjIJw9OLR-32" target="hD-VJVcdOtQMjIJw9OLR-52">
          <mxGeometry width="160" relative="1" as="geometry">
            <mxPoint x="1230" y="280" as="sourcePoint" />
            <mxPoint x="1230" y="360" as="targetPoint" />
          </mxGeometry>
        </mxCell>
        <mxCell id="hD-VJVcdOtQMjIJw9OLR-42" value="Uses" style="edgeLabel;html=1;align=center;verticalAlign=middle;resizable=0;points=[];" vertex="1" connectable="0" parent="hD-VJVcdOtQMjIJw9OLR-41">
          <mxGeometry x="-0.1714" y="-3" relative="1" as="geometry">
            <mxPoint as="offset" />
          </mxGeometry>
        </mxCell>
        <mxCell id="hD-VJVcdOtQMjIJw9OLR-49" value="«interface»&lt;br&gt;&lt;b&gt;MongoRepository&lt;/b&gt;" style="html=1;whiteSpace=wrap;" vertex="1" parent="1">
          <mxGeometry x="550" y="590" width="380" height="50" as="geometry" />
        </mxCell>
        <mxCell id="hD-VJVcdOtQMjIJw9OLR-50" value="&lt;p style=&quot;margin:0px;margin-top:4px;text-align:center;&quot;&gt;&lt;i&gt;&amp;lt;&amp;lt;Interface&amp;gt;&amp;gt;&lt;/i&gt;&lt;b&gt;&lt;br&gt;&lt;/b&gt;&lt;/p&gt;&lt;p style=&quot;margin:0px;margin-top:4px;text-align:center;&quot;&gt;&lt;b&gt;UserRepository&lt;/b&gt;&lt;br&gt;&lt;/p&gt;&lt;hr size=&quot;1&quot;&gt;&amp;nbsp;+ findByUsername(username: String): Optional&amp;lt;User&amp;gt;" style="verticalAlign=top;align=left;overflow=fill;fontSize=12;fontFamily=Helvetica;html=1;whiteSpace=wrap;" vertex="1" parent="1">
          <mxGeometry x="92.5" y="360" width="315" height="80" as="geometry" />
        </mxCell>
        <mxCell id="hD-VJVcdOtQMjIJw9OLR-51" value="&lt;p style=&quot;margin:0px;margin-top:4px;text-align:center;&quot;&gt;&lt;i&gt;&amp;lt;&amp;lt;Interface&amp;gt;&amp;gt;&lt;/i&gt;&lt;/p&gt;&lt;p style=&quot;margin:0px;margin-top:4px;text-align:center;&quot;&gt;&lt;b&gt;RentRepository&lt;/b&gt;&lt;br&gt;&lt;/p&gt;&lt;hr size=&quot;1&quot;&gt;&lt;p style=&quot;margin:0px;margin-left:4px;&quot;&gt;+ getTotalAmountByUserId(userId: ObjectId): Double&lt;/p&gt;&lt;p style=&quot;margin:0px;margin-left:4px;&quot;&gt;+ getCurrentlyRentedCarsCountByUserId(userId: ObjectId): Int&lt;/p&gt;" style="verticalAlign=top;align=left;overflow=fill;fontSize=12;fontFamily=Helvetica;html=1;whiteSpace=wrap;" vertex="1" parent="1">
          <mxGeometry x="550" y="360" width="380" height="110" as="geometry" />
        </mxCell>
        <mxCell id="hD-VJVcdOtQMjIJw9OLR-52" value="&lt;div&gt;«interface»&lt;/div&gt;&lt;div&gt;&lt;b&gt;CarRepository&lt;/b&gt;&lt;/div&gt;" style="html=1;whiteSpace=wrap;" vertex="1" parent="1">
          <mxGeometry x="1040" y="360" width="380" height="50" as="geometry" />
        </mxCell>
        <mxCell id="hD-VJVcdOtQMjIJw9OLR-54" value="Extends" style="endArrow=block;endSize=16;endFill=0;html=1;rounded=0;exitX=0.5;exitY=1;exitDx=0;exitDy=0;entryX=0;entryY=0.5;entryDx=0;entryDy=0;edgeStyle=orthogonalEdgeStyle;" edge="1" parent="1" source="hD-VJVcdOtQMjIJw9OLR-50" target="hD-VJVcdOtQMjIJw9OLR-49">
          <mxGeometry width="160" relative="1" as="geometry">
            <mxPoint x="490" y="550" as="sourcePoint" />
            <mxPoint x="670" y="480" as="targetPoint" />
          </mxGeometry>
        </mxCell>
        <mxCell id="hD-VJVcdOtQMjIJw9OLR-55" value="Extends" style="endArrow=block;endSize=16;endFill=0;html=1;rounded=0;exitX=0.5;exitY=1;exitDx=0;exitDy=0;entryX=1;entryY=0.5;entryDx=0;entryDy=0;edgeStyle=orthogonalEdgeStyle;" edge="1" parent="1" source="hD-VJVcdOtQMjIJw9OLR-52" target="hD-VJVcdOtQMjIJw9OLR-49">
          <mxGeometry width="160" relative="1" as="geometry">
            <mxPoint x="1230" y="420" as="sourcePoint" />
            <mxPoint x="930" y="625" as="targetPoint" />
          </mxGeometry>
        </mxCell>
        <mxCell id="hD-VJVcdOtQMjIJw9OLR-56" value="Extends" style="endArrow=block;endSize=16;endFill=0;html=1;rounded=0;exitX=0.5;exitY=1;exitDx=0;exitDy=0;entryX=0.5;entryY=0;entryDx=0;entryDy=0;edgeStyle=orthogonalEdgeStyle;" edge="1" parent="1" source="hD-VJVcdOtQMjIJw9OLR-51" target="hD-VJVcdOtQMjIJw9OLR-49">
          <mxGeometry width="160" relative="1" as="geometry">
            <mxPoint x="260" y="450" as="sourcePoint" />
            <mxPoint x="560" y="625" as="targetPoint" />
          </mxGeometry>
        </mxCell>
        <mxCell id="hD-VJVcdOtQMjIJw9OLR-60" value="Rent" style="swimlane;fontStyle=0;childLayout=stackLayout;horizontal=1;startSize=26;fillColor=none;horizontalStack=0;resizeParent=1;resizeParentMax=0;resizeLast=0;collapsible=1;marginBottom=0;whiteSpace=wrap;html=1;" vertex="1" parent="1">
          <mxGeometry x="655" y="-470" width="170" height="130" as="geometry" />
        </mxCell>
        <mxCell id="hD-VJVcdOtQMjIJw9OLR-61" value="+ userId: ObjectId" style="text;strokeColor=none;fillColor=none;align=left;verticalAlign=top;spacingLeft=4;spacingRight=4;overflow=hidden;rotatable=0;points=[[0,0.5],[1,0.5]];portConstraint=eastwest;whiteSpace=wrap;html=1;" vertex="1" parent="hD-VJVcdOtQMjIJw9OLR-60">
          <mxGeometry y="26" width="170" height="26" as="geometry" />
        </mxCell>
        <mxCell id="hD-VJVcdOtQMjIJw9OLR-62" value="+ carId: ObjectId " style="text;strokeColor=none;fillColor=none;align=left;verticalAlign=top;spacingLeft=4;spacingRight=4;overflow=hidden;rotatable=0;points=[[0,0.5],[1,0.5]];portConstraint=eastwest;whiteSpace=wrap;html=1;" vertex="1" parent="hD-VJVcdOtQMjIJw9OLR-60">
          <mxGeometry y="52" width="170" height="26" as="geometry" />
        </mxCell>
        <mxCell id="hD-VJVcdOtQMjIJw9OLR-63" value="+ rentDate: LocalDateTime" style="text;strokeColor=none;fillColor=none;align=left;verticalAlign=top;spacingLeft=4;spacingRight=4;overflow=hidden;rotatable=0;points=[[0,0.5],[1,0.5]];portConstraint=eastwest;whiteSpace=wrap;html=1;" vertex="1" parent="hD-VJVcdOtQMjIJw9OLR-60">
          <mxGeometry y="78" width="170" height="26" as="geometry" />
        </mxCell>
        <mxCell id="hD-VJVcdOtQMjIJw9OLR-73" value="+ returnDate: LocalDateTime" style="text;strokeColor=none;fillColor=none;align=left;verticalAlign=top;spacingLeft=4;spacingRight=4;overflow=hidden;rotatable=0;points=[[0,0.5],[1,0.5]];portConstraint=eastwest;whiteSpace=wrap;html=1;" vertex="1" parent="hD-VJVcdOtQMjIJw9OLR-60">
          <mxGeometry y="104" width="170" height="26" as="geometry" />
        </mxCell>
        <mxCell id="hD-VJVcdOtQMjIJw9OLR-65" value="User" style="swimlane;fontStyle=0;childLayout=stackLayout;horizontal=1;startSize=26;fillColor=none;horizontalStack=0;resizeParent=1;resizeParentMax=0;resizeLast=0;collapsible=1;marginBottom=0;whiteSpace=wrap;html=1;" vertex="1" parent="1">
          <mxGeometry x="180" y="-470" width="140" height="104" as="geometry" />
        </mxCell>
        <mxCell id="hD-VJVcdOtQMjIJw9OLR-66" value="+ username: String" style="text;strokeColor=none;fillColor=none;align=left;verticalAlign=top;spacingLeft=4;spacingRight=4;overflow=hidden;rotatable=0;points=[[0,0.5],[1,0.5]];portConstraint=eastwest;whiteSpace=wrap;html=1;" vertex="1" parent="hD-VJVcdOtQMjIJw9OLR-65">
          <mxGeometry y="26" width="140" height="26" as="geometry" />
        </mxCell>
        <mxCell id="hD-VJVcdOtQMjIJw9OLR-67" value="+ password: String" style="text;strokeColor=none;fillColor=none;align=left;verticalAlign=top;spacingLeft=4;spacingRight=4;overflow=hidden;rotatable=0;points=[[0,0.5],[1,0.5]];portConstraint=eastwest;whiteSpace=wrap;html=1;" vertex="1" parent="hD-VJVcdOtQMjIJw9OLR-65">
          <mxGeometry y="52" width="140" height="26" as="geometry" />
        </mxCell>
        <mxCell id="hD-VJVcdOtQMjIJw9OLR-68" value="+ email: String" style="text;strokeColor=none;fillColor=none;align=left;verticalAlign=top;spacingLeft=4;spacingRight=4;overflow=hidden;rotatable=0;points=[[0,0.5],[1,0.5]];portConstraint=eastwest;whiteSpace=wrap;html=1;" vertex="1" parent="hD-VJVcdOtQMjIJw9OLR-65">
          <mxGeometry y="78" width="140" height="26" as="geometry" />
        </mxCell>
        <mxCell id="hD-VJVcdOtQMjIJw9OLR-69" value="Car" style="swimlane;fontStyle=0;childLayout=stackLayout;horizontal=1;startSize=26;fillColor=none;horizontalStack=0;resizeParent=1;resizeParentMax=0;resizeLast=0;collapsible=1;marginBottom=0;whiteSpace=wrap;html=1;" vertex="1" parent="1">
          <mxGeometry x="1135" y="-470" width="190" height="156" as="geometry" />
        </mxCell>
        <mxCell id="hD-VJVcdOtQMjIJw9OLR-70" value="+ model: String" style="text;strokeColor=none;fillColor=none;align=left;verticalAlign=top;spacingLeft=4;spacingRight=4;overflow=hidden;rotatable=0;points=[[0,0.5],[1,0.5]];portConstraint=eastwest;whiteSpace=wrap;html=1;" vertex="1" parent="hD-VJVcdOtQMjIJw9OLR-69">
          <mxGeometry y="26" width="190" height="26" as="geometry" />
        </mxCell>
        <mxCell id="hD-VJVcdOtQMjIJw9OLR-71" value="+ make: String" style="text;strokeColor=none;fillColor=none;align=left;verticalAlign=top;spacingLeft=4;spacingRight=4;overflow=hidden;rotatable=0;points=[[0,0.5],[1,0.5]];portConstraint=eastwest;whiteSpace=wrap;html=1;" vertex="1" parent="hD-VJVcdOtQMjIJw9OLR-69">
          <mxGeometry y="52" width="190" height="26" as="geometry" />
        </mxCell>
        <mxCell id="hD-VJVcdOtQMjIJw9OLR-72" value="+ year: Int" style="text;strokeColor=none;fillColor=none;align=left;verticalAlign=top;spacingLeft=4;spacingRight=4;overflow=hidden;rotatable=0;points=[[0,0.5],[1,0.5]];portConstraint=eastwest;whiteSpace=wrap;html=1;" vertex="1" parent="hD-VJVcdOtQMjIJw9OLR-69">
          <mxGeometry y="78" width="190" height="26" as="geometry" />
        </mxCell>
        <mxCell id="hD-VJVcdOtQMjIJw9OLR-75" value="+ price: Double" style="text;strokeColor=none;fillColor=none;align=left;verticalAlign=top;spacingLeft=4;spacingRight=4;overflow=hidden;rotatable=0;points=[[0,0.5],[1,0.5]];portConstraint=eastwest;whiteSpace=wrap;html=1;" vertex="1" parent="hD-VJVcdOtQMjIJw9OLR-69">
          <mxGeometry y="104" width="190" height="26" as="geometry" />
        </mxCell>
        <mxCell id="hD-VJVcdOtQMjIJw9OLR-76" value="+ status: CarStatus" style="text;strokeColor=none;fillColor=none;align=left;verticalAlign=top;spacingLeft=4;spacingRight=4;overflow=hidden;rotatable=0;points=[[0,0.5],[1,0.5]];portConstraint=eastwest;whiteSpace=wrap;html=1;" vertex="1" parent="hD-VJVcdOtQMjIJw9OLR-69">
          <mxGeometry y="130" width="190" height="26" as="geometry" />
        </mxCell>
        <mxCell id="hD-VJVcdOtQMjIJw9OLR-77" value="Invoice" style="swimlane;fontStyle=0;childLayout=stackLayout;horizontal=1;startSize=26;fillColor=none;horizontalStack=0;resizeParent=1;resizeParentMax=0;resizeLast=0;collapsible=1;marginBottom=0;whiteSpace=wrap;html=1;" vertex="1" parent="1">
          <mxGeometry x="850" y="-400" width="190" height="155" as="geometry" />
        </mxCell>
        <mxCell id="hD-VJVcdOtQMjIJw9OLR-78" value="+ invoiceName: String" style="text;strokeColor=none;fillColor=none;align=left;verticalAlign=top;spacingLeft=4;spacingRight=4;overflow=hidden;rotatable=0;points=[[0,0.5],[1,0.5]];portConstraint=eastwest;whiteSpace=wrap;html=1;" vertex="1" parent="hD-VJVcdOtQMjIJw9OLR-77">
          <mxGeometry y="26" width="190" height="26" as="geometry" />
        </mxCell>
        <mxCell id="hD-VJVcdOtQMjIJw9OLR-79" value="+ dateIssued: LocalDateTime" style="text;strokeColor=none;fillColor=none;align=left;verticalAlign=top;spacingLeft=4;spacingRight=4;overflow=hidden;rotatable=0;points=[[0,0.5],[1,0.5]];portConstraint=eastwest;whiteSpace=wrap;html=1;" vertex="1" parent="hD-VJVcdOtQMjIJw9OLR-77">
          <mxGeometry y="52" width="190" height="26" as="geometry" />
        </mxCell>
        <mxCell id="hD-VJVcdOtQMjIJw9OLR-80" value="+ dueDate: LocalDateTime" style="text;strokeColor=none;fillColor=none;align=left;verticalAlign=top;spacingLeft=4;spacingRight=4;overflow=hidden;rotatable=0;points=[[0,0.5],[1,0.5]];portConstraint=eastwest;whiteSpace=wrap;html=1;" vertex="1" parent="hD-VJVcdOtQMjIJw9OLR-77">
          <mxGeometry y="78" width="190" height="25" as="geometry" />
        </mxCell>
        <mxCell id="hD-VJVcdOtQMjIJw9OLR-81" value="+ totalAmount: Double" style="text;strokeColor=none;fillColor=none;align=left;verticalAlign=top;spacingLeft=4;spacingRight=4;overflow=hidden;rotatable=0;points=[[0,0.5],[1,0.5]];portConstraint=eastwest;whiteSpace=wrap;html=1;" vertex="1" parent="hD-VJVcdOtQMjIJw9OLR-77">
          <mxGeometry y="103" width="190" height="26" as="geometry" />
        </mxCell>
        <mxCell id="hD-VJVcdOtQMjIJw9OLR-82" value="+ paymentStatus: PaymentStatus" style="text;strokeColor=none;fillColor=none;align=left;verticalAlign=top;spacingLeft=4;spacingRight=4;overflow=hidden;rotatable=0;points=[[0,0.5],[1,0.5]];portConstraint=eastwest;whiteSpace=wrap;html=1;" vertex="1" parent="hD-VJVcdOtQMjIJw9OLR-77">
          <mxGeometry y="129" width="190" height="26" as="geometry" />
        </mxCell>
        <mxCell id="hD-VJVcdOtQMjIJw9OLR-84" value="1" style="endArrow=open;html=1;endSize=12;startArrow=diamondThin;startSize=14;startFill=1;edgeStyle=orthogonalEdgeStyle;align=left;verticalAlign=bottom;rounded=0;exitX=1;exitY=0.5;exitDx=0;exitDy=0;" edge="1" parent="1" source="hD-VJVcdOtQMjIJw9OLR-61" target="hD-VJVcdOtQMjIJw9OLR-77">
          <mxGeometry x="-1" y="3" relative="1" as="geometry">
            <mxPoint x="710" y="-310" as="sourcePoint" />
            <mxPoint x="940" y="-420" as="targetPoint" />
          </mxGeometry>
        </mxCell>
        <mxCell id="hD-VJVcdOtQMjIJw9OLR-87" value="&lt;p style=&quot;margin:0px;margin-top:4px;text-align:center;&quot;&gt;&lt;i&gt;&amp;lt;&amp;lt;enumeration&amp;gt;&amp;gt;&lt;/i&gt;&lt;b&gt;&lt;br&gt;&lt;/b&gt;&lt;/p&gt;&lt;p style=&quot;margin:0px;margin-top:4px;text-align:center;&quot;&gt;&lt;b&gt;PaymentStatus&lt;/b&gt;&lt;/p&gt;&lt;div&gt;&lt;br&gt;&lt;/div&gt;&lt;div&gt;&amp;nbsp;UNPAID&lt;/div&gt;&lt;div&gt;&amp;nbsp;PAID&lt;br&gt;&lt;/div&gt;&lt;hr size=&quot;1&quot;&gt;" style="verticalAlign=top;align=left;overflow=fill;fontSize=12;fontFamily=Helvetica;html=1;whiteSpace=wrap;" vertex="1" parent="1">
          <mxGeometry x="860" y="-210" width="190" height="90" as="geometry" />
        </mxCell>
        <mxCell id="hD-VJVcdOtQMjIJw9OLR-88" value="&lt;p style=&quot;margin:0px;margin-top:4px;text-align:center;&quot;&gt;&lt;i&gt;&amp;lt;&amp;lt;enumeration&amp;gt;&amp;gt;&lt;/i&gt;&lt;/p&gt;&lt;p style=&quot;margin:0px;margin-top:4px;text-align:center;&quot;&gt;&lt;b&gt;CarStatus&lt;/b&gt;&lt;br&gt;&lt;/p&gt;&lt;div&gt;&amp;nbsp;&lt;/div&gt;&lt;div&gt;&amp;nbsp;AVAILABLE&lt;/div&gt;&lt;div&gt;&amp;nbsp;RENTED&lt;/div&gt;&lt;hr size=&quot;1&quot;&gt;" style="verticalAlign=top;align=left;overflow=fill;fontSize=12;fontFamily=Helvetica;html=1;whiteSpace=wrap;" vertex="1" parent="1">
          <mxGeometry x="1270" y="-210" width="190" height="90" as="geometry" />
        </mxCell>
        <mxCell id="hD-VJVcdOtQMjIJw9OLR-89" value="1" style="endArrow=open;html=1;endSize=12;startArrow=diamondThin;startSize=14;startFill=1;edgeStyle=orthogonalEdgeStyle;align=left;verticalAlign=bottom;rounded=0;exitX=0;exitY=0.5;exitDx=0;exitDy=0;entryX=0;entryY=0.5;entryDx=0;entryDy=0;" edge="1" parent="1" source="hD-VJVcdOtQMjIJw9OLR-82" target="hD-VJVcdOtQMjIJw9OLR-87">
          <mxGeometry x="-1" y="3" relative="1" as="geometry">
            <mxPoint x="810" y="-421" as="sourcePoint" />
            <mxPoint x="955" y="-390" as="targetPoint" />
            <Array as="points">
              <mxPoint x="790" y="-258" />
              <mxPoint x="790" y="-165" />
            </Array>
          </mxGeometry>
        </mxCell>
        <mxCell id="hD-VJVcdOtQMjIJw9OLR-92" value="1" style="endArrow=open;html=1;endSize=12;startArrow=diamondThin;startSize=14;startFill=1;edgeStyle=orthogonalEdgeStyle;align=left;verticalAlign=bottom;rounded=0;exitX=1;exitY=0.5;exitDx=0;exitDy=0;entryX=1;entryY=0.5;entryDx=0;entryDy=0;" edge="1" parent="1" source="hD-VJVcdOtQMjIJw9OLR-76" target="hD-VJVcdOtQMjIJw9OLR-88">
          <mxGeometry x="-1" y="3" relative="1" as="geometry">
            <mxPoint x="1285" y="-269" as="sourcePoint" />
            <mxPoint x="1295" y="-89" as="targetPoint" />
            <Array as="points">
              <mxPoint x="1520" y="-327" />
              <mxPoint x="1520" y="-165" />
            </Array>
          </mxGeometry>
        </mxCell>
        <mxCell id="hD-VJVcdOtQMjIJw9OLR-93" value="" style="endArrow=open;endFill=1;endSize=12;html=1;rounded=0;entryX=0.5;entryY=0;entryDx=0;entryDy=0;exitX=0.499;exitY=1.121;exitDx=0;exitDy=0;exitPerimeter=0;" edge="1" parent="1" source="hD-VJVcdOtQMjIJw9OLR-68" target="hD-VJVcdOtQMjIJw9OLR-18">
          <mxGeometry width="160" relative="1" as="geometry">
            <mxPoint x="250" y="-210" as="sourcePoint" />
            <mxPoint x="260" y="370" as="targetPoint" />
          </mxGeometry>
        </mxCell>
        <mxCell id="hD-VJVcdOtQMjIJw9OLR-94" value="Uses" style="edgeLabel;html=1;align=center;verticalAlign=middle;resizable=0;points=[];" vertex="1" connectable="0" parent="hD-VJVcdOtQMjIJw9OLR-93">
          <mxGeometry x="-0.1714" y="-3" relative="1" as="geometry">
            <mxPoint as="offset" />
          </mxGeometry>
        </mxCell>
        <mxCell id="hD-VJVcdOtQMjIJw9OLR-95" value="" style="endArrow=open;endFill=1;endSize=12;html=1;rounded=0;entryX=0.5;entryY=0;entryDx=0;entryDy=0;exitX=0.486;exitY=1.026;exitDx=0;exitDy=0;exitPerimeter=0;" edge="1" parent="1" source="hD-VJVcdOtQMjIJw9OLR-73" target="hD-VJVcdOtQMjIJw9OLR-1">
          <mxGeometry width="160" relative="1" as="geometry">
            <mxPoint x="268.8599999999999" y="117" as="sourcePoint" />
            <mxPoint x="270" y="380" as="targetPoint" />
          </mxGeometry>
        </mxCell>
        <mxCell id="hD-VJVcdOtQMjIJw9OLR-96" value="Uses" style="edgeLabel;html=1;align=center;verticalAlign=middle;resizable=0;points=[];" vertex="1" connectable="0" parent="hD-VJVcdOtQMjIJw9OLR-95">
          <mxGeometry x="-0.1714" y="-3" relative="1" as="geometry">
            <mxPoint as="offset" />
          </mxGeometry>
        </mxCell>
        <mxCell id="hD-VJVcdOtQMjIJw9OLR-97" value="" style="endArrow=open;endFill=1;endSize=12;html=1;rounded=0;" edge="1" parent="1" source="hD-VJVcdOtQMjIJw9OLR-76" target="hD-VJVcdOtQMjIJw9OLR-32">
          <mxGeometry width="160" relative="1" as="geometry">
            <mxPoint x="1280" y="-200" as="sourcePoint" />
            <mxPoint x="1340" y="-540" as="targetPoint" />
          </mxGeometry>
        </mxCell>
        <mxCell id="hD-VJVcdOtQMjIJw9OLR-98" value="Uses" style="edgeLabel;html=1;align=center;verticalAlign=middle;resizable=0;points=[];" vertex="1" connectable="0" parent="hD-VJVcdOtQMjIJw9OLR-97">
          <mxGeometry x="-0.1714" y="-3" relative="1" as="geometry">
            <mxPoint as="offset" />
          </mxGeometry>
        </mxCell>
        <mxCell id="hD-VJVcdOtQMjIJw9OLR-111" value="" style="endArrow=none;startArrow=diamondThin;endFill=0;startFill=0;html=1;verticalAlign=bottom;labelBackgroundColor=none;strokeWidth=1;startSize=8;endSize=8;rounded=0;exitX=0.5;exitY=0;exitDx=0;exitDy=0;entryX=0.5;entryY=0;entryDx=0;entryDy=0;edgeStyle=orthogonalEdgeStyle;" edge="1" parent="1" source="hD-VJVcdOtQMjIJw9OLR-60" target="hD-VJVcdOtQMjIJw9OLR-65">
          <mxGeometry width="160" relative="1" as="geometry">
            <mxPoint x="670" y="-430" as="sourcePoint" />
            <mxPoint x="510" y="-430" as="targetPoint" />
            <Array as="points">
              <mxPoint x="740" y="-520" />
              <mxPoint x="250" y="-520" />
            </Array>
          </mxGeometry>
        </mxCell>
        <mxCell id="hD-VJVcdOtQMjIJw9OLR-113" value="Has" style="edgeLabel;html=1;align=center;verticalAlign=middle;resizable=0;points=[];" vertex="1" connectable="0" parent="hD-VJVcdOtQMjIJw9OLR-111">
          <mxGeometry x="-0.0614" relative="1" as="geometry">
            <mxPoint as="offset" />
          </mxGeometry>
        </mxCell>
        <mxCell id="hD-VJVcdOtQMjIJw9OLR-116" value="" style="endArrow=none;startArrow=diamondThin;endFill=0;startFill=0;html=1;verticalAlign=bottom;labelBackgroundColor=none;strokeWidth=1;startSize=8;endSize=8;rounded=0;exitX=0.5;exitY=0;exitDx=0;exitDy=0;entryX=0.5;entryY=0;entryDx=0;entryDy=0;edgeStyle=orthogonalEdgeStyle;" edge="1" parent="1" source="hD-VJVcdOtQMjIJw9OLR-60" target="hD-VJVcdOtQMjIJw9OLR-69">
          <mxGeometry width="160" relative="1" as="geometry">
            <mxPoint x="1350" y="-490" as="sourcePoint" />
            <mxPoint x="1190" y="-490" as="targetPoint" />
            <Array as="points">
              <mxPoint x="740" y="-520" />
              <mxPoint x="1230" y="-520" />
            </Array>
          </mxGeometry>
        </mxCell>
        <mxCell id="hD-VJVcdOtQMjIJw9OLR-117" value="&lt;div&gt;Has&lt;/div&gt;" style="edgeLabel;html=1;align=center;verticalAlign=middle;resizable=0;points=[];" vertex="1" connectable="0" parent="hD-VJVcdOtQMjIJw9OLR-116">
          <mxGeometry x="-0.0357" y="-1" relative="1" as="geometry">
            <mxPoint as="offset" />
          </mxGeometry>
        </mxCell>
      </root>
    </mxGraphModel>
  </diagram>
</mxfile>
